<svg width="64" height="64" viewBox="0 0 64 64" fill="none" xmlns="http://www.w3.org/2000/svg">
<path d="M13.334 24C13.334 15.1634 21.6913 8 32.0006 8C42.31 8 50.6673 15.1634 50.6673 24" stroke="black" stroke-width="1.5" stroke-linejoin="round"/>
<path d="M50.6667 45.333V55.9997H32" stroke="black" stroke-width="1.5" stroke-linejoin="round"/>
<path d="M18.6498 42.6452V26.7298L13.3204 24.0264L5.45108 29.3844C5.37812 29.434 5.33444 29.5167 5.33444 29.6052L5.33398 39.8903C5.33398 39.9796 5.37865 40.0631 5.453 40.1124L13.2332 45.2884C13.3136 45.342 13.4167 45.3476 13.5025 45.3034L18.6498 42.6452Z" stroke="black" stroke-width="1.5"/>
<path d="M45.3516 42.6189V26.7035L50.6809 24L58.5502 29.3581C58.623 29.4077 58.6668 29.4904 58.6668 29.5787L58.6673 39.8637C58.6673 39.9533 58.6225 40.0368 58.5484 40.0861L50.7681 45.2621C50.6876 45.3157 50.5846 45.3213 50.4988 45.2771L45.3516 42.6189Z" stroke="black" stroke-width="1.5"/>
</svg>
