<svg width="64" height="64" viewBox="0 0 64 64" fill="none" xmlns="http://www.w3.org/2000/svg">
<path d="M32.0006 58.6663C46.7282 58.6663 58.6673 46.7273 58.6673 31.9997C58.6673 17.2721 46.7282 5.33301 32.0006 5.33301C17.2731 5.33301 5.33398 17.2721 5.33398 31.9997C5.33398 46.7273 17.2731 58.6663 32.0006 58.6663Z" stroke="black" stroke-width="1.5"/>
<path d="M32 18.667V28.0003M32 28.0003C29.7909 28.0003 28 29.7913 28 32.0003C28 34.2094 29.7909 36.0003 32 36.0003C34.2091 36.0003 36 34.2094 36 32.0003C36 29.7913 34.2091 28.0003 32 28.0003ZM36 36.0003L40 40.0003" stroke="black" stroke-width="1.5" stroke-linejoin="round"/>
</svg>
