<svg width="40" height="40" viewBox="0 0 40 40" fill="none" xmlns="http://www.w3.org/2000/svg">
<circle opacity="0.4" cx="20" cy="20" r="20" fill="#1F232F"/>
<g opacity="0.8">
<path d="M11.9641 12.3176C12.103 12.0459 12.3824 11.875 12.6875 11.875H16.75C17.0109 11.875 17.2559 12.0003 17.4087 12.2118L27.9712 26.8367C28.1498 27.0842 28.1748 27.4108 28.0359 27.6824C27.897 27.9541 27.6176 28.125 27.3125 28.125H23.25C22.9891 28.125 22.7441 27.9998 22.5913 27.7882L12.0288 13.1632C11.8502 12.9159 11.8252 12.5893 11.9641 12.3176Z" fill="white"/>
<path d="M12.113 26.738L26.738 12.113C27.0552 11.7957 27.5697 11.7957 27.887 12.113C28.2043 12.4303 28.2043 12.9447 27.887 13.262L13.262 27.887C12.9447 28.2043 12.4303 28.2043 12.113 27.887C11.7957 27.5697 11.7957 27.0552 12.113 26.738Z" fill="white"/>
</g>
</svg>
