<svg width="40" height="40" viewBox="0 0 40 40" fill="none" xmlns="http://www.w3.org/2000/svg">
<circle cx="20" cy="20" r="20" fill="#1F232F"/>
<path d="M19.9995 12.292C18.4506 12.292 16.9626 12.445 15.5801 12.7268L15.474 12.7484C13.8951 13.0697 12.8431 13.2839 11.9366 14.4494C11.0398 15.6025 11.0403 16.9397 11.0411 19.0107V20.99C11.0403 23.061 11.0398 24.3982 11.9366 25.5512C12.8431 26.7168 13.8951 26.9309 15.474 27.2522L15.5801 27.2739C16.9626 27.5557 18.4506 27.7087 19.9995 27.7087C21.5483 27.7087 23.0363 27.5557 24.4188 27.2739L24.5249 27.2522C26.1037 26.9309 27.1557 26.7168 28.0623 25.5512C28.9591 24.3982 28.9586 23.061 28.9578 20.99V19.0107C28.9586 16.9397 28.9591 15.6025 28.0623 14.4494C27.1557 13.2839 26.1037 13.0697 24.5249 12.7484L24.4188 12.7268C23.0363 12.445 21.5483 12.292 19.9995 12.292Z" fill="white"/>
<path d="M21.0103 17.7101C20.3685 17.3517 19.8436 17.0585 19.4115 16.8772C18.709 16.5824 17.9641 16.5585 17.3519 17.0602C16.9687 17.3741 16.8332 17.8237 16.7738 18.2768C16.6301 19.3722 16.6301 20.629 16.7738 21.7239C16.8332 22.1769 16.9687 22.6265 17.3519 22.9405C17.9641 23.4422 18.709 23.4182 19.4115 23.1235C19.8437 22.9421 20.3685 22.649 21.0103 22.2906C21.5119 22.0105 22.0273 21.7417 22.4952 21.4053C22.8449 21.1539 23.1766 20.8423 23.2865 20.3879C23.3481 20.1328 23.3481 19.8678 23.2865 19.6127C23.1766 19.1583 22.8449 18.8467 22.4952 18.5953C22.0273 18.2589 21.5119 17.9902 21.0103 17.7101Z" fill="#1F232F"/>
</svg>
